<mxfile host="app.diagrams.net" modified="2023-06-21T20:20:16.796Z" agent="Mozilla/5.0 (Windows NT 10.0; Win64; x64) AppleWebKit/537.36 (KHTML, like Gecko) Chrome/113.0.0.0 Safari/537.36 OPR/99.0.0.0" etag="Ih8pj9QCqvo18k1ibmAX" version="21.5.0" type="github">
  <diagram id="C5RBs43oDa-KdzZeNtuy" name="Page-1">
    <mxGraphModel dx="1639" dy="938" grid="1" gridSize="10" guides="1" tooltips="1" connect="1" arrows="1" fold="1" page="1" pageScale="1" pageWidth="827" pageHeight="1169" math="0" shadow="0">
      <root>
        <mxCell id="WIyWlLk6GJQsqaUBKTNV-0" />
        <mxCell id="WIyWlLk6GJQsqaUBKTNV-1" parent="WIyWlLk6GJQsqaUBKTNV-0" />
        <mxCell id="b9RzDyuzk2_rMFcailhy-58" style="edgeStyle=orthogonalEdgeStyle;rounded=0;orthogonalLoop=1;jettySize=auto;html=1;exitX=0.5;exitY=1;exitDx=0;exitDy=0;entryX=0.5;entryY=0;entryDx=0;entryDy=0;" edge="1" parent="WIyWlLk6GJQsqaUBKTNV-1" source="WIyWlLk6GJQsqaUBKTNV-3">
          <mxGeometry relative="1" as="geometry">
            <mxPoint x="260" y="150" as="targetPoint" />
          </mxGeometry>
        </mxCell>
        <mxCell id="WIyWlLk6GJQsqaUBKTNV-3" value="Start ESP&lt;br&gt;Configure Variables&lt;br&gt;Configure RTC" style="rounded=1;whiteSpace=wrap;html=1;fontSize=12;glass=0;strokeWidth=1;shadow=0;" parent="WIyWlLk6GJQsqaUBKTNV-1" vertex="1">
          <mxGeometry x="200" y="50" width="120" height="50" as="geometry" />
        </mxCell>
        <mxCell id="b9RzDyuzk2_rMFcailhy-59" value="No" style="edgeStyle=orthogonalEdgeStyle;rounded=0;orthogonalLoop=1;jettySize=auto;html=1;exitX=0;exitY=0.5;exitDx=0;exitDy=0;entryX=1;entryY=0.5;entryDx=0;entryDy=0;" edge="1" parent="WIyWlLk6GJQsqaUBKTNV-1" source="WIyWlLk6GJQsqaUBKTNV-6" target="b9RzDyuzk2_rMFcailhy-26">
          <mxGeometry relative="1" as="geometry" />
        </mxCell>
        <mxCell id="b9RzDyuzk2_rMFcailhy-61" value="Yes" style="edgeStyle=orthogonalEdgeStyle;rounded=0;orthogonalLoop=1;jettySize=auto;html=1;exitX=1;exitY=0.5;exitDx=0;exitDy=0;entryX=0.5;entryY=0;entryDx=0;entryDy=0;" edge="1" parent="WIyWlLk6GJQsqaUBKTNV-1" source="WIyWlLk6GJQsqaUBKTNV-6" target="b9RzDyuzk2_rMFcailhy-18">
          <mxGeometry x="-0.3998" relative="1" as="geometry">
            <mxPoint as="offset" />
          </mxGeometry>
        </mxCell>
        <mxCell id="WIyWlLk6GJQsqaUBKTNV-6" value="RTC_time_off&amp;nbsp; &amp;gt;= 1h" style="rhombus;whiteSpace=wrap;html=1;shadow=0;fontFamily=Helvetica;fontSize=12;align=center;strokeWidth=1;spacing=6;spacingTop=-4;" parent="WIyWlLk6GJQsqaUBKTNV-1" vertex="1">
          <mxGeometry x="165" y="320" width="190" height="80" as="geometry" />
        </mxCell>
        <mxCell id="b9RzDyuzk2_rMFcailhy-60" style="edgeStyle=orthogonalEdgeStyle;rounded=0;orthogonalLoop=1;jettySize=auto;html=1;exitX=0.5;exitY=1;exitDx=0;exitDy=0;entryX=0.5;entryY=0;entryDx=0;entryDy=0;" edge="1" parent="WIyWlLk6GJQsqaUBKTNV-1" source="b9RzDyuzk2_rMFcailhy-0" target="WIyWlLk6GJQsqaUBKTNV-6">
          <mxGeometry relative="1" as="geometry" />
        </mxCell>
        <mxCell id="b9RzDyuzk2_rMFcailhy-0" value="Enable Interruption button 1 to turn on the system" style="rounded=1;whiteSpace=wrap;html=1;fontSize=12;glass=0;strokeWidth=1;shadow=0;" vertex="1" parent="WIyWlLk6GJQsqaUBKTNV-1">
          <mxGeometry x="320" y="230" width="120" height="50" as="geometry" />
        </mxCell>
        <mxCell id="b9RzDyuzk2_rMFcailhy-52" style="edgeStyle=orthogonalEdgeStyle;rounded=0;orthogonalLoop=1;jettySize=auto;html=1;entryX=0.5;entryY=1;entryDx=0;entryDy=0;" edge="1" parent="WIyWlLk6GJQsqaUBKTNV-1" source="b9RzDyuzk2_rMFcailhy-2" target="b9RzDyuzk2_rMFcailhy-5">
          <mxGeometry relative="1" as="geometry">
            <Array as="points">
              <mxPoint x="67" y="584" />
              <mxPoint x="260" y="584" />
            </Array>
          </mxGeometry>
        </mxCell>
        <mxCell id="b9RzDyuzk2_rMFcailhy-2" value="Sleep&lt;br style=&quot;font-size: 11px;&quot;&gt;update(RTC_time_on)" style="rounded=1;whiteSpace=wrap;html=1;fontSize=11;glass=0;strokeWidth=1;shadow=0;" vertex="1" parent="WIyWlLk6GJQsqaUBKTNV-1">
          <mxGeometry x="7" y="504" width="120" height="40" as="geometry" />
        </mxCell>
        <mxCell id="b9RzDyuzk2_rMFcailhy-4" value="&lt;h1 style=&quot;font-size: 11px;&quot;&gt;&lt;span style=&quot;background-color: initial; font-size: 11px;&quot;&gt;&lt;font style=&quot;font-size: 11px;&quot;&gt;Aeration System&lt;/font&gt;&lt;/span&gt;&lt;/h1&gt;&lt;h1 style=&quot;font-size: 11px;&quot;&gt;&lt;span style=&quot;background-color: initial; font-weight: normal; font-size: 11px;&quot;&gt;Will be turned on by the user pressing a button or after a period of 1h&amp;nbsp;and will aerate the water for 30 minutes. Critical time of 15 minutes the motor needs to cool down&lt;/span&gt;&lt;br style=&quot;font-size: 11px;&quot;&gt;&lt;/h1&gt;" style="text;html=1;strokeColor=none;fillColor=none;spacing=5;spacingTop=-20;whiteSpace=wrap;overflow=hidden;rounded=0;fontSize=11;" vertex="1" parent="WIyWlLk6GJQsqaUBKTNV-1">
          <mxGeometry x="500" y="40" width="310" height="150" as="geometry" />
        </mxCell>
        <mxCell id="b9RzDyuzk2_rMFcailhy-48" style="edgeStyle=orthogonalEdgeStyle;rounded=0;orthogonalLoop=1;jettySize=auto;html=1;entryX=0.5;entryY=1;entryDx=0;entryDy=0;" edge="1" parent="WIyWlLk6GJQsqaUBKTNV-1" source="b9RzDyuzk2_rMFcailhy-5" target="b9RzDyuzk2_rMFcailhy-35">
          <mxGeometry relative="1" as="geometry" />
        </mxCell>
        <mxCell id="b9RzDyuzk2_rMFcailhy-49" value="Yes" style="edgeLabel;html=1;align=center;verticalAlign=middle;resizable=0;points=[];" vertex="1" connectable="0" parent="b9RzDyuzk2_rMFcailhy-48">
          <mxGeometry x="-0.5444" y="1" relative="1" as="geometry">
            <mxPoint as="offset" />
          </mxGeometry>
        </mxCell>
        <mxCell id="b9RzDyuzk2_rMFcailhy-51" value="No" style="edgeStyle=orthogonalEdgeStyle;rounded=0;orthogonalLoop=1;jettySize=auto;html=1;exitX=0;exitY=0.5;exitDx=0;exitDy=0;entryX=1;entryY=0.5;entryDx=0;entryDy=0;" edge="1" parent="WIyWlLk6GJQsqaUBKTNV-1" source="b9RzDyuzk2_rMFcailhy-5" target="b9RzDyuzk2_rMFcailhy-2">
          <mxGeometry relative="1" as="geometry" />
        </mxCell>
        <mxCell id="b9RzDyuzk2_rMFcailhy-5" value="RTC_time_on &amp;lt;=&amp;nbsp;&amp;nbsp;30mim" style="rhombus;whiteSpace=wrap;html=1;shadow=0;fontFamily=Helvetica;fontSize=12;align=center;strokeWidth=1;spacing=6;spacingTop=-4;" vertex="1" parent="WIyWlLk6GJQsqaUBKTNV-1">
          <mxGeometry x="165" y="484" width="190" height="80" as="geometry" />
        </mxCell>
        <mxCell id="b9RzDyuzk2_rMFcailhy-20" style="edgeStyle=orthogonalEdgeStyle;rounded=0;orthogonalLoop=1;jettySize=auto;html=1;entryX=0.5;entryY=0;entryDx=0;entryDy=0;" edge="1" parent="WIyWlLk6GJQsqaUBKTNV-1" source="b9RzDyuzk2_rMFcailhy-18" target="b9RzDyuzk2_rMFcailhy-5">
          <mxGeometry relative="1" as="geometry" />
        </mxCell>
        <mxCell id="b9RzDyuzk2_rMFcailhy-18" value="Turn on Motor&lt;br&gt;RTC_time_on = 0min" style="rounded=1;whiteSpace=wrap;html=1;fontSize=12;glass=0;strokeWidth=1;shadow=0;" vertex="1" parent="WIyWlLk6GJQsqaUBKTNV-1">
          <mxGeometry x="320" y="400" width="120" height="30" as="geometry" />
        </mxCell>
        <mxCell id="b9RzDyuzk2_rMFcailhy-62" style="edgeStyle=orthogonalEdgeStyle;rounded=0;orthogonalLoop=1;jettySize=auto;html=1;entryX=0.5;entryY=1;entryDx=0;entryDy=0;" edge="1" parent="WIyWlLk6GJQsqaUBKTNV-1" source="b9RzDyuzk2_rMFcailhy-26" target="WIyWlLk6GJQsqaUBKTNV-6">
          <mxGeometry relative="1" as="geometry">
            <Array as="points">
              <mxPoint x="70" y="420" />
              <mxPoint x="260" y="420" />
            </Array>
          </mxGeometry>
        </mxCell>
        <mxCell id="b9RzDyuzk2_rMFcailhy-26" value="Sleep&lt;br style=&quot;font-size: 11px;&quot;&gt;update(RTC_time_off)" style="rounded=1;whiteSpace=wrap;html=1;fontSize=11;glass=0;strokeWidth=1;shadow=0;" vertex="1" parent="WIyWlLk6GJQsqaUBKTNV-1">
          <mxGeometry x="7" y="340" width="120" height="40" as="geometry" />
        </mxCell>
        <mxCell id="b9RzDyuzk2_rMFcailhy-47" style="edgeStyle=orthogonalEdgeStyle;rounded=0;orthogonalLoop=1;jettySize=auto;html=1;exitX=0.5;exitY=0;exitDx=0;exitDy=0;" edge="1" parent="WIyWlLk6GJQsqaUBKTNV-1" source="b9RzDyuzk2_rMFcailhy-35">
          <mxGeometry relative="1" as="geometry">
            <mxPoint x="260" y="130" as="targetPoint" />
            <Array as="points">
              <mxPoint x="520" y="130" />
            </Array>
          </mxGeometry>
        </mxCell>
        <mxCell id="b9RzDyuzk2_rMFcailhy-35" value="Turn off Motor&lt;br&gt;Disable Interruption button 1 to turn on the system&lt;br&gt;RTC_time_on =&amp;nbsp; 0min&lt;br&gt;RTC_time_off = 0min" style="rounded=1;whiteSpace=wrap;html=1;fontSize=12;glass=0;strokeWidth=1;shadow=0;" vertex="1" parent="WIyWlLk6GJQsqaUBKTNV-1">
          <mxGeometry x="440" y="290" width="160" height="110" as="geometry" />
        </mxCell>
        <mxCell id="b9RzDyuzk2_rMFcailhy-55" style="edgeStyle=orthogonalEdgeStyle;rounded=0;orthogonalLoop=1;jettySize=auto;html=1;entryX=0.5;entryY=1;entryDx=0;entryDy=0;" edge="1" parent="WIyWlLk6GJQsqaUBKTNV-1" source="b9RzDyuzk2_rMFcailhy-53">
          <mxGeometry relative="1" as="geometry">
            <mxPoint x="260" y="230" as="targetPoint" />
            <Array as="points">
              <mxPoint x="67" y="250" />
              <mxPoint x="260" y="250" />
            </Array>
          </mxGeometry>
        </mxCell>
        <mxCell id="b9RzDyuzk2_rMFcailhy-53" value="Sleep&lt;br style=&quot;font-size: 11px;&quot;&gt;update(RTC_time_off)" style="rounded=1;whiteSpace=wrap;html=1;fontSize=11;glass=0;strokeWidth=1;shadow=0;" vertex="1" parent="WIyWlLk6GJQsqaUBKTNV-1">
          <mxGeometry x="7" y="170" width="120" height="40" as="geometry" />
        </mxCell>
        <mxCell id="b9RzDyuzk2_rMFcailhy-67" style="edgeStyle=orthogonalEdgeStyle;rounded=0;orthogonalLoop=1;jettySize=auto;html=1;exitX=0.5;exitY=1;exitDx=0;exitDy=0;entryX=0.5;entryY=0;entryDx=0;entryDy=0;" edge="1" parent="WIyWlLk6GJQsqaUBKTNV-1" source="b9RzDyuzk2_rMFcailhy-63" target="b9RzDyuzk2_rMFcailhy-66">
          <mxGeometry relative="1" as="geometry" />
        </mxCell>
        <mxCell id="b9RzDyuzk2_rMFcailhy-63" value="Interrup 1&lt;br&gt;Button 1 Pressed" style="rounded=0;whiteSpace=wrap;html=1;" vertex="1" parent="WIyWlLk6GJQsqaUBKTNV-1">
          <mxGeometry x="30" y="620" width="120" height="60" as="geometry" />
        </mxCell>
        <mxCell id="b9RzDyuzk2_rMFcailhy-70" style="edgeStyle=orthogonalEdgeStyle;rounded=0;orthogonalLoop=1;jettySize=auto;html=1;entryX=0.5;entryY=0;entryDx=0;entryDy=0;" edge="1" parent="WIyWlLk6GJQsqaUBKTNV-1" source="b9RzDyuzk2_rMFcailhy-64" target="b9RzDyuzk2_rMFcailhy-69">
          <mxGeometry relative="1" as="geometry" />
        </mxCell>
        <mxCell id="b9RzDyuzk2_rMFcailhy-64" value="RTC_time_off = 1h" style="rounded=1;whiteSpace=wrap;html=1;" vertex="1" parent="WIyWlLk6GJQsqaUBKTNV-1">
          <mxGeometry x="30" y="840" width="120" height="60" as="geometry" />
        </mxCell>
        <mxCell id="b9RzDyuzk2_rMFcailhy-68" value="Yes" style="edgeStyle=orthogonalEdgeStyle;rounded=0;orthogonalLoop=1;jettySize=auto;html=1;exitX=0.5;exitY=1;exitDx=0;exitDy=0;entryX=0.5;entryY=0;entryDx=0;entryDy=0;" edge="1" parent="WIyWlLk6GJQsqaUBKTNV-1" source="b9RzDyuzk2_rMFcailhy-66" target="b9RzDyuzk2_rMFcailhy-64">
          <mxGeometry relative="1" as="geometry" />
        </mxCell>
        <mxCell id="b9RzDyuzk2_rMFcailhy-71" value="No" style="edgeStyle=orthogonalEdgeStyle;rounded=0;orthogonalLoop=1;jettySize=auto;html=1;exitX=1;exitY=0.5;exitDx=0;exitDy=0;entryX=1;entryY=0.5;entryDx=0;entryDy=0;" edge="1" parent="WIyWlLk6GJQsqaUBKTNV-1" source="b9RzDyuzk2_rMFcailhy-66" target="b9RzDyuzk2_rMFcailhy-69">
          <mxGeometry relative="1" as="geometry" />
        </mxCell>
        <mxCell id="b9RzDyuzk2_rMFcailhy-66" value="Enable Interruption button?" style="rhombus;whiteSpace=wrap;html=1;" vertex="1" parent="WIyWlLk6GJQsqaUBKTNV-1">
          <mxGeometry x="40" y="720" width="100" height="80" as="geometry" />
        </mxCell>
        <mxCell id="b9RzDyuzk2_rMFcailhy-69" value="End Interruption" style="rounded=0;whiteSpace=wrap;html=1;" vertex="1" parent="WIyWlLk6GJQsqaUBKTNV-1">
          <mxGeometry x="30" y="945" width="120" height="60" as="geometry" />
        </mxCell>
        <mxCell id="b9RzDyuzk2_rMFcailhy-80" style="edgeStyle=orthogonalEdgeStyle;rounded=0;orthogonalLoop=1;jettySize=auto;html=1;exitX=0.5;exitY=1;exitDx=0;exitDy=0;entryX=0.5;entryY=0;entryDx=0;entryDy=0;" edge="1" parent="WIyWlLk6GJQsqaUBKTNV-1" source="b9RzDyuzk2_rMFcailhy-73" target="b9RzDyuzk2_rMFcailhy-75">
          <mxGeometry relative="1" as="geometry" />
        </mxCell>
        <mxCell id="b9RzDyuzk2_rMFcailhy-73" value="Interrup 2&lt;br&gt;Button 2 Pressed" style="rounded=0;whiteSpace=wrap;html=1;" vertex="1" parent="WIyWlLk6GJQsqaUBKTNV-1">
          <mxGeometry x="200" y="620" width="120" height="60" as="geometry" />
        </mxCell>
        <mxCell id="b9RzDyuzk2_rMFcailhy-74" style="edgeStyle=orthogonalEdgeStyle;rounded=0;orthogonalLoop=1;jettySize=auto;html=1;entryX=0.5;entryY=0;entryDx=0;entryDy=0;" edge="1" parent="WIyWlLk6GJQsqaUBKTNV-1" source="b9RzDyuzk2_rMFcailhy-75" target="b9RzDyuzk2_rMFcailhy-79">
          <mxGeometry relative="1" as="geometry" />
        </mxCell>
        <mxCell id="b9RzDyuzk2_rMFcailhy-75" value="RTC_time_on = 30min" style="rounded=1;whiteSpace=wrap;html=1;" vertex="1" parent="WIyWlLk6GJQsqaUBKTNV-1">
          <mxGeometry x="200" y="720" width="120" height="60" as="geometry" />
        </mxCell>
        <mxCell id="b9RzDyuzk2_rMFcailhy-79" value="End Interruption" style="rounded=0;whiteSpace=wrap;html=1;" vertex="1" parent="WIyWlLk6GJQsqaUBKTNV-1">
          <mxGeometry x="200" y="825" width="120" height="60" as="geometry" />
        </mxCell>
        <mxCell id="b9RzDyuzk2_rMFcailhy-82" value="No" style="edgeStyle=orthogonalEdgeStyle;rounded=0;orthogonalLoop=1;jettySize=auto;html=1;exitX=0;exitY=0.5;exitDx=0;exitDy=0;entryX=1;entryY=0.5;entryDx=0;entryDy=0;" edge="1" parent="WIyWlLk6GJQsqaUBKTNV-1" source="b9RzDyuzk2_rMFcailhy-81" target="b9RzDyuzk2_rMFcailhy-53">
          <mxGeometry relative="1" as="geometry" />
        </mxCell>
        <mxCell id="b9RzDyuzk2_rMFcailhy-83" value="Yes" style="edgeStyle=orthogonalEdgeStyle;rounded=0;orthogonalLoop=1;jettySize=auto;html=1;exitX=1;exitY=0.5;exitDx=0;exitDy=0;entryX=0.5;entryY=0;entryDx=0;entryDy=0;" edge="1" parent="WIyWlLk6GJQsqaUBKTNV-1" source="b9RzDyuzk2_rMFcailhy-81" target="b9RzDyuzk2_rMFcailhy-0">
          <mxGeometry relative="1" as="geometry" />
        </mxCell>
        <mxCell id="b9RzDyuzk2_rMFcailhy-81" value="RTC_time_off &amp;gt;= 15min" style="rhombus;whiteSpace=wrap;html=1;" vertex="1" parent="WIyWlLk6GJQsqaUBKTNV-1">
          <mxGeometry x="170" y="150" width="180" height="80" as="geometry" />
        </mxCell>
      </root>
    </mxGraphModel>
  </diagram>
</mxfile>
